<svg width="177" height="101" viewBox="0 0 177 101" fill="none" xmlns="http://www.w3.org/2000/svg">
<g clip-path="url(#clip0_781_12128)">
<path d="M29.9777 21.3869C46.2086 21.3869 59.3715 34.5464 59.3715 50.8068V78.9746H42.4916V50.795C42.4916 43.8549 36.8925 38.232 29.9659 38.232C23.0452 38.232 17.4225 43.8549 17.4225 50.795C17.4225 57.7232 23.0511 63.3285 29.9659 63.3285H42.4916L26.8802 80.0496C12.1007 78.4962 0.589844 65.9982 0.589844 50.8009C0.589844 34.5464 13.7527 21.3869 29.9777 21.3869ZM67.2009 0.407227H84.7828V78.9392H67.2009V0.407227ZM93.3615 0.407227H110.926V78.9392H93.3615V0.407227ZM176.41 22.1842L146.975 100.598H128.655L137.647 78.6793L116.006 22.1902H134.425L146.408 57.2566L157.937 22.1902C157.943 22.1842 176.41 22.1842 176.41 22.1842Z" fill="#1C3C3C"/>
</g>
<defs>
<clipPath id="clip0_781_12128">
<rect width="177" height="101" fill="white"/>
</clipPath>
</defs>
</svg>
