<svg width="272" height="88" viewBox="0 0 272 88" fill="none" xmlns="http://www.w3.org/2000/svg">
<g clip-path="url(#clip0_781_12134)">
<path d="M38.2835 20.0605H0.80315V32.097H25.4331C27.0394 32.097 28.1102 33.4344 28.1102 34.7718V55.9025H22.7559C21.1496 55.9025 20.0787 54.5651 20.0787 53.2277V37.9815H9.6378C4.28346 37.9815 0 42.2612 0 47.6107V58.3098C0 63.6593 4.28346 67.939 9.6378 67.939H47.9213V29.6897C47.9213 24.3402 43.6378 20.0605 38.2835 20.0605Z" fill="#1C3C3C"/>
<path d="M84.0634 55.9027H78.709C77.1027 55.9027 76.0319 54.5653 76.0319 53.228V20.0608H65.5909C60.2366 20.0608 55.9531 24.3404 55.9531 29.69V58.31C55.9531 63.6596 60.2366 67.9392 65.5909 67.9392H103.874V0H83.7956L84.0634 55.9027Z" fill="#1C3C3C"/>
<path d="M140.016 55.9025H134.662C133.056 55.9025 131.985 54.5651 131.985 53.2277V20.0605H111.906V58.3098C111.906 63.6593 116.19 67.939 121.544 67.939H140.016V73.8235H112.709V87.7323H150.457C155.812 87.7323 160.095 83.4526 160.095 78.1031V20.0605H140.016V55.9025Z" fill="#1C3C3C"/>
<path d="M206.411 20.0605H167.859V58.3098C167.859 63.6593 172.143 67.939 177.497 67.939H215.245V55.9025H190.615C189.009 55.9025 187.938 54.5651 187.938 53.2277V32.097H193.292C194.899 32.097 195.97 33.4344 195.97 34.7718V50.018H206.411C211.765 50.018 216.048 45.7384 216.048 40.3888V29.6897C216.048 24.3402 211.765 20.0605 206.411 20.0605Z" fill="#1C3C3C"/>
<path d="M262.362 20.0605H224.078V67.939H244.157V32.097H249.511C251.117 32.097 252.188 33.4344 252.188 34.7718V67.939H272.267V29.6897C271.999 24.3402 267.716 20.0605 262.362 20.0605Z" fill="#1C3C3C"/>
</g>
<defs>
<clipPath id="clip0_781_12134">
<rect width="272" height="88" fill="white"/>
</clipPath>
</defs>
</svg>
