<svg width="118" height="64" viewBox="0 0 118 64" fill="none" xmlns="http://www.w3.org/2000/svg">
<g clip-path="url(#clip0_1691_2669)">
<path d="M94.9578 45.4941H23.6172L29.3074 51.0002L94.9578 45.4941Z" fill="#777777"/>
<path d="M106.41 41.9837V30.9715C106.41 28.9068 107.904 27.1861 110.037 27.1861C112.171 27.1861 113.665 28.9068 113.665 30.9715V41.9837H118.075V30.9715C118.075 26.429 114.874 22.7812 110.18 22.7812C108.046 22.7812 106.41 23.9513 106.41 23.9513V23.1942H102V41.9149H106.41V41.9837Z" fill="#777777"/>
<path d="M91.8268 22.7124C86.7056 22.7124 83.0781 27.0484 83.0781 32.5545C83.0781 38.3359 87.6303 42.3966 92.2535 42.3966C94.6007 42.3966 97.5169 41.6395 100.006 38.1982L96.0944 35.9958C93.1071 40.263 88.057 38.1294 87.488 33.7934H100.149C101.287 27.1861 96.8057 22.7124 91.8268 22.7124ZM95.6676 30.1456H87.7725C88.6972 25.8096 94.8141 25.5343 95.6676 30.1456Z" fill="#777777"/>
<path d="M81.6572 37.5101C81.2304 37.7854 80.7325 37.9919 80.1635 37.9919C79.4522 37.9919 78.1008 37.4413 78.1008 35.7206V27.668H81.8706V23.1943H78.1008V18.5142H73.6909V23.1943H71.3438V27.668H73.6909V35.7206C73.6909 39.919 76.9628 42.3968 80.2346 42.3968C81.4438 42.3968 83.1509 41.9838 84.5023 41.2267L81.6572 37.5101Z" fill="#777777"/>
<path d="M65.4383 23.1943V34.2065C65.4383 36.2713 63.9446 37.9919 61.8108 37.9919C59.677 37.9919 58.1833 36.2713 58.1833 34.2065V23.1943H53.7734V34.2065C53.7734 38.749 56.9742 42.3968 61.6686 42.3968C63.8024 42.3968 65.4383 41.2267 65.4383 41.2267V41.915H69.8482V23.1943H65.4383Z" fill="#777777"/>
<path d="M45.5258 32.004L53.0653 23.1943H46.9484L41.6138 29.7328V17H37.1328V41.9838H41.6138V34.2753L48.1575 41.9838H54.2745L45.5258 32.004Z" fill="#777777"/>
<path d="M30.2264 23.1942V24.0201C28.875 23.1942 27.7369 22.7124 26.101 22.7124C21.1221 22.7124 17.2812 27.1173 17.2812 32.5545C17.2812 37.9918 21.051 42.3966 26.101 42.3966C27.7369 42.3966 28.9461 41.9148 30.2264 41.0889V41.9148H34.6363V23.1942H30.2264ZM26.0299 37.9229C23.5404 37.9229 21.7623 35.5828 21.7623 32.6233C21.7623 29.6638 23.5404 27.3237 26.0299 27.3237C28.5193 27.3237 30.2264 29.6638 30.2264 32.6233C30.2975 35.5828 28.5193 37.9229 26.0299 37.9229Z" fill="#777777"/>
<path d="M4.62327 41.9838V34.6882H7.82399L13.443 41.915H19.2043L12.3761 33.1741C14.5099 31.7287 15.8614 29.3198 15.8614 26.5668C15.8614 22.0931 12.0916 18.5142 7.53948 18.5142H0V41.915H4.62327V41.9838ZM4.62327 22.9878H7.61061C9.6733 22.9878 11.3804 24.6397 11.3804 26.6356C11.3804 28.6316 9.6733 30.2834 7.61061 30.2834H4.62327V22.9878Z" fill="#777777"/>
</g>
<defs>
<clipPath id="clip0_1691_2669">
<rect width="118" height="64" fill="white"/>
</clipPath>
</defs>
</svg>
