<svg width="148" height="64" viewBox="0 0 148 64" fill="none" xmlns="http://www.w3.org/2000/svg">
<path d="M21.5737 19.6704H1.46986V26.1324H14.6809C15.5425 26.1324 16.1169 26.8503 16.1169 27.5683V38.9126H13.245C12.3834 38.9126 11.809 38.1946 11.809 37.4767V29.2915H6.20862C3.33664 29.2915 1.03906 31.5891 1.03906 34.4611V40.205C1.03906 43.077 3.33664 45.3746 6.20862 45.3746H26.7432V24.84C26.7432 21.968 24.4457 19.6704 21.5737 19.6704Z" fill="#9D9D9D"/>
<path d="M46.1247 38.9125H43.2528C42.3912 38.9125 41.8168 38.1945 41.8168 37.4765V19.6703H36.2164C33.3445 19.6703 31.0469 21.9679 31.0469 24.8399V40.2049C31.0469 43.0769 33.3445 45.3745 36.2164 45.3745H56.7511V8.90039H45.9811L46.1247 38.9125Z" fill="#9D9D9D"/>
<path d="M76.1326 38.9126H73.2606C72.399 38.9126 71.8246 38.1946 71.8246 37.4767V19.6704H61.0547V40.205C61.0547 43.077 63.3523 45.3746 66.2242 45.3746H76.1326V48.5338H61.4855V56.0009H81.7329C84.6049 56.0009 86.9025 53.7033 86.9025 50.8313V19.6704H76.1326V38.9126Z" fill="#9D9D9D"/>
<path d="M111.756 19.6704H91.0781V40.205C91.0781 43.077 93.3757 45.3746 96.2477 45.3746H116.495V38.9126H103.284C102.422 38.9126 101.848 38.1946 101.848 37.4767V26.1324H104.72C105.582 26.1324 106.156 26.8503 106.156 27.5683V35.7535H111.756C114.628 35.7535 116.926 33.4559 116.926 30.5839V24.84C116.926 21.968 114.628 19.6704 111.756 19.6704Z" fill="#9D9D9D"/>
<path d="M141.769 19.6704H121.234V45.3746H132.004V26.1324H134.876C135.738 26.1324 136.312 26.8503 136.312 27.5683V45.3746H147.082V24.84C146.939 21.968 144.641 19.6704 141.769 19.6704Z" fill="#9D9D9D"/>
</svg>
