<svg width="177" height="64" viewBox="0 0 177 64" fill="none" xmlns="http://www.w3.org/2000/svg">
<path d="M165.779 18.2511C166.227 18.2511 166.575 18.5758 166.575 18.9962V23.7713H175.206C175.654 23.7713 176.002 24.096 176.002 24.5165V26.9775C176.002 27.374 175.654 27.7227 175.206 27.75H166.575V35.0135C166.575 38.0488 167.669 39.2691 170.756 39.2691H174.635C175.083 39.2691 175.432 39.5938 175.432 40.0142V42.4753C175.432 42.8718 175.083 43.2204 174.635 43.2204H170.01C164.336 43.2204 161.701 40.6329 161.701 35.0374V27.7227H156.601C156.153 27.7227 155.805 27.3979 155.805 26.9775V24.5165C155.805 24.12 156.153 23.7713 156.601 23.7713H161.701V18.9962C161.701 18.5997 162.05 18.2511 162.497 18.2511H165.779ZM149.857 23.7747C150.305 23.7747 150.654 24.0995 150.654 24.5199V39.2725H156.748C157.196 39.2725 157.545 39.5972 157.545 40.0176V42.4787C157.545 42.8752 157.196 43.2238 156.748 43.2238H139.832C139.384 43.2238 139.036 42.8991 139.036 42.4787V40.0176C139.036 39.6211 139.384 39.2725 139.832 39.2725H145.776V27.7295H139.832C139.384 27.7295 139.036 27.4048 139.036 26.9844V24.5233C139.036 24.1268 139.384 23.7782 139.832 23.7782H149.857V23.7747ZM150.056 16.2617C150.479 16.2617 150.828 16.5864 150.852 17.0069V20.1652C150.852 20.5617 150.503 20.9104 150.056 20.9104H145.578C145.13 20.9104 144.781 20.5856 144.781 20.1652V17.0069C144.781 16.6104 145.13 16.2617 145.578 16.2617H150.056ZM135.279 39.2725H130.203V17.0069C130.203 16.583 129.854 16.2617 129.407 16.2617H119.457C119.009 16.2617 118.66 16.6104 118.66 17.0069V19.4713C118.66 19.8952 119.009 20.2165 119.457 20.2165H125.329V39.2725H118.735C118.288 39.2725 117.939 39.6211 117.939 40.0176V42.4787C117.939 42.9025 118.288 43.2238 118.735 43.2238H135.279C135.727 43.2238 136.075 42.8752 136.075 42.4787V40.0176C136.075 39.5938 135.727 39.2725 135.279 39.2725ZM108.262 23.3987C106.57 23.3987 105.35 23.7713 104.407 24.6669L103.238 25.788H102.168L101.771 24.3456C101.672 24.0208 101.375 23.7747 100.999 23.7747H98.7598C98.312 23.7747 97.9634 24.1234 97.9634 24.5199V49.9951C97.9634 50.419 98.312 50.7403 98.7598 50.7403H102.045C102.492 50.7403 102.841 50.3916 102.841 49.9951V44.4714L102.417 41.5114L103.511 41.2618L104.68 42.3796C105.599 43.2238 106.721 43.6477 108.385 43.6477C113.212 43.6477 116.12 40.315 116.12 33.5232C116.1 26.7348 113.215 23.3987 108.262 23.3987ZM106.645 39.5699C104.181 39.5699 102.814 38.3017 102.814 35.8885V31.1134C102.814 28.7002 104.157 27.4321 106.645 27.4321C109.657 27.4321 111.024 29.3223 111.024 33.4788C111 37.6796 109.657 39.5699 106.645 39.5699ZM84.0585 23.3987C77.7897 23.3987 74.4297 26.7314 74.4297 33.4993C74.4297 40.2911 77.7623 43.6238 83.932 43.6238C88.7071 43.6238 91.7937 41.6344 92.614 38.2265C92.7371 37.7548 92.3406 37.3071 91.8415 37.3071H88.8575C88.5328 37.3071 88.2354 37.5053 88.1124 37.8061C87.5894 39.2725 86.0991 39.9698 84.0824 39.9698C80.948 39.9698 79.4543 38.2539 79.256 34.2479H92.8636C93.6121 26.7588 90.5016 23.3987 84.0585 23.3987ZM79.4064 31.2126C79.8781 28.2764 81.3479 26.9092 84.0346 26.9092C86.8955 26.9092 88.2388 28.4268 88.314 31.2126H79.4064ZM64.729 24.6429L63.6079 25.7641H62.4902L62.1415 24.3456C62.0663 23.9969 61.745 23.7747 61.369 23.7747H54.2047C53.7569 23.7747 53.4082 24.1234 53.4082 24.5199V26.9809C53.4082 27.4048 53.7569 27.7261 54.2047 27.7261H58.4329V39.2691H53.5074C53.0596 39.2691 52.7109 39.6177 52.7109 40.0142V42.4753C52.7109 42.8991 53.0596 43.2204 53.5074 43.2204H69.0051C69.4529 43.2204 69.8015 42.8718 69.8015 42.4753V40.0142C69.8015 39.5904 69.4529 39.2691 69.0051 39.2691H63.3071V31.11C63.3071 28.8199 64.6504 27.627 67.2858 27.627H71.5653C72.013 27.627 72.3617 27.2783 72.3617 26.8818V24.1712C72.3617 23.7474 72.013 23.4261 71.5653 23.4261H69.029C67.1662 23.3988 65.6998 23.7474 64.729 24.6429Z" fill="#77777B"/>
<path d="M1 15.4005C1 13.9717 2.15874 12.813 3.58751 12.813H15.6569C17.0857 12.813 18.2444 13.9717 18.2444 15.4005V26.6051H3.58751C2.15874 26.6051 1 25.4463 1 24.0176V15.4005ZM18.241 26.6051H32.8945C34.3232 26.6051 35.482 27.7638 35.482 29.1926V37.8131C35.482 39.2419 34.3232 40.4006 32.8945 40.4006H18.241V26.6051ZM1 42.9813C1 41.5525 2.15874 40.3938 3.58751 40.3938H18.241V51.5984C18.241 53.0271 17.0822 54.1859 15.6535 54.1859H3.58751C2.15874 54.1859 1 53.0271 1 51.5984V42.9813Z" fill="#AEAEB0"/>
</svg>
