<svg width="138" height="64" viewBox="0 0 138 64" fill="none" xmlns="http://www.w3.org/2000/svg">
<path d="M22.1649 28.9285L31.8411 33.3365L41.5931 24.7805C41.7426 24.0709 41.8001 23.3798 41.8001 22.6323C41.7958 19.7404 40.6451 16.9681 38.6002 14.9232C36.5553 12.8783 33.7831 11.7276 30.8912 11.7234C27.2859 11.7234 23.9429 13.4978 21.9062 16.4683L20.2812 24.892L22.1649 28.9285Z" fill="#E8E8E8"/>
<path d="M12.1523 39.1643C12.0028 39.8739 11.9453 40.6018 11.9453 41.3493C11.9508 44.2489 13.1063 47.0279 15.1584 49.0765C17.2105 51.1252 19.9914 52.276 22.891 52.2766C24.6734 52.2766 26.4288 51.841 28.0044 51.0076C29.58 50.1742 30.9281 48.9683 31.9312 47.4949L33.5377 39.108L31.3895 34.999L21.6766 30.5715L12.1523 39.1643Z" fill="#A8A8A8"/>
<path d="M12.0975 22.4283L18.7284 23.9969L20.1854 16.469C19.2884 15.779 18.1684 15.4041 17.0115 15.4041C15.6245 15.4047 14.2945 15.9559 13.3138 16.9366C12.3331 17.9173 11.7819 19.2473 11.7812 20.6343C11.7812 21.2507 11.8917 21.8671 12.0975 22.4283Z" fill="#8B8B8B"/>
<path d="M11.5177 24.0154C8.56679 24.9871 6.49219 27.8253 6.49219 30.9453C6.49219 33.9905 8.37819 36.6987 11.1991 37.782L20.5026 29.3755L18.8029 25.7335L11.5177 24.0154Z" fill="#9C9C9C"/>
<path d="M33.6094 47.4946C34.5248 48.1846 35.6265 48.5779 36.7661 48.5779C38.1531 48.5773 39.483 48.0261 40.4638 47.0453C41.4445 46.0646 41.9957 44.7347 41.9963 43.3477C41.9974 42.7297 41.89 42.1162 41.6789 41.5353L35.0664 39.9851L33.6094 47.4946Z" fill="#B8B8B8"/>
<path d="M34.9552 38.249L42.2405 39.9487C43.6989 39.4607 44.9678 38.528 45.869 37.2818C46.7701 36.0355 47.2583 34.5383 47.2648 33.0004C47.2648 29.9759 45.3788 27.247 42.5578 26.1809L33.0312 34.5299L34.9552 38.249Z" fill="#707070"/>
<path d="M66.5818 40.8835L67.4593 40.7915L67.5168 42.5855C65.2007 42.9029 63.2203 43.0708 61.577 43.0708C59.392 43.0708 57.8418 42.436 56.9264 41.1653C56.011 39.8945 55.5625 37.9154 55.5625 35.2428C55.5625 29.901 57.6923 27.2296 61.9335 27.2296C63.9886 27.2296 65.5215 27.8092 66.5289 28.9477C67.5363 30.0862 68.0423 31.8986 68.0423 34.3458L67.9112 36.0823H57.8579C57.8579 37.7636 58.1569 39.0148 58.7733 39.8175C59.3897 40.6202 60.4362 41.0319 61.9473 41.0319C63.4929 41.0654 65.0393 41.0155 66.5795 40.8824L66.5818 40.8835ZM65.7596 34.2894C65.7596 32.4218 65.4606 31.0959 64.8626 30.33C64.2646 29.5641 63.294 29.1719 61.9485 29.1719C60.603 29.1719 59.576 29.5825 58.9033 30.3863C58.2305 31.1902 57.8763 32.4966 57.8683 34.2906L65.7596 34.2894ZM71.214 42.9754V22.9343H73.4933V42.9765L71.214 42.9754ZM87.8948 32.1608V39.8382C87.8948 40.6041 89.7808 40.5661 89.7808 40.5661L89.6692 42.5832C88.0627 42.5832 86.7367 42.7143 85.934 41.9484C84.2103 42.7093 82.3453 43.0976 80.4611 43.0881C79.0604 43.0881 77.9956 42.6971 77.2676 41.8921C76.5397 41.1078 76.1659 39.9681 76.1659 38.4743C76.1659 36.9988 76.5397 35.8983 77.2872 35.206C78.0347 34.5137 79.2111 34.0675 80.8177 33.918L85.5993 33.458V32.1504C85.5993 31.1235 85.3751 30.376 84.9266 29.9275C84.4781 29.479 83.8617 29.2547 83.0958 29.2547H77.0974V27.2468H82.944C84.6621 27.2468 85.9145 27.6378 86.6988 28.4428C87.5015 29.2271 87.8948 30.4795 87.8948 32.1608ZM78.5177 38.3627C78.5177 40.2303 79.2836 41.1641 80.8338 41.1641C82.2206 41.1671 83.5977 40.9333 84.9059 40.473L85.5959 40.2315V35.1933L81.0948 35.6234C80.1794 35.6982 79.5262 35.9592 79.1145 36.4077C78.7028 36.8562 78.5165 37.5094 78.5165 38.3512L78.5177 38.3627ZM96.8027 29.2846C94.5981 29.2846 93.4792 30.0505 93.4792 31.6007C93.4792 32.3103 93.7402 32.8151 94.245 33.1141C94.7499 33.4131 95.908 33.7121 97.7181 34.0295C99.5282 34.3469 100.8 34.777 101.548 35.3555C102.295 35.9155 102.669 36.9804 102.669 38.549C102.669 40.1176 102.163 41.2573 101.155 41.9875C100.148 42.7178 98.6898 43.0892 96.7474 43.0892C95.4962 43.0892 91.293 42.6223 91.293 42.6223L91.4241 40.642L96.7658 41.0526C97.9423 41.0526 98.8393 40.8663 99.4569 40.4925C100.074 40.1188 100.391 39.484 100.391 38.6065C100.391 37.7291 100.13 37.1311 99.6063 36.8125C99.0831 36.494 97.9251 36.1961 96.1334 35.9155C94.3417 35.6349 93.0697 35.2255 92.3234 34.6643C91.5759 34.1238 91.2022 33.0957 91.2022 31.6191C91.2022 30.1425 91.7254 29.0431 92.7707 28.3301C93.8161 27.6171 95.1248 27.2652 96.675 27.2652C97.9078 27.2652 102.204 27.5826 102.204 27.5826V29.5813L96.8061 29.2823L96.8027 29.2846ZM113.688 29.5457H108.85V36.8309C108.85 38.5674 108.981 39.7266 109.224 40.2694C109.485 40.8099 110.083 41.0917 111.036 41.0917L113.744 40.9054L113.894 42.7914C112.53 43.0156 111.502 43.1272 110.794 43.1272C109.207 43.1272 108.122 42.7362 107.505 41.9691C106.887 41.2021 106.589 39.7266 106.589 37.5612V29.548H104.423V27.5677H106.589V22.8987H108.849V27.5493H113.687L113.688 29.5457ZM116.862 25.6046V22.9596H119.141V25.6115H116.862V25.6046ZM116.862 42.9765V27.5665H119.141V42.9765H116.862ZM129.052 27.2491C129.725 27.2491 130.865 27.3802 132.47 27.6229L133.198 27.7149L133.106 29.5641L129.518 29.2835C127.8 29.2835 126.622 29.694 126.006 30.5163C125.389 31.3385 125.072 32.8703 125.072 35.0933C125.072 37.3162 125.353 38.8653 125.931 39.7439C126.509 40.6225 127.705 41.0514 129.536 41.0514L133.124 40.7708L133.216 42.6568L128.976 43.0869C126.604 43.0869 124.96 42.4705 124.063 41.2561C123.166 40.0417 122.699 37.9878 122.699 35.0921C122.699 32.1964 123.185 30.1609 124.157 29.0029C125.146 27.8448 126.772 27.2468 129.051 27.2468L129.052 27.2491Z" fill="#777777"/>
</svg>
