<svg width="167" height="64" viewBox="0 0 167 64" fill="none" xmlns="http://www.w3.org/2000/svg">
<path d="M86.2829 32.0417C86.2829 31.5408 86.2551 31.0398 86.2272 30.5666C86.1994 30.0934 86.1159 29.5924 86.0602 29.1193H79.2968H72.5333L70.4737 32.3479L68.414 35.5766H78.8514C78.2391 37.6919 77.0423 39.501 75.428 40.7814C73.8136 42.0617 71.7818 42.841 69.416 42.841C66.4657 42.841 63.8494 41.6164 61.9289 39.6402C60.0084 37.6641 58.8394 34.9642 58.8394 31.9861C58.8394 29.0636 60.0084 26.3916 61.9567 24.4433C63.8772 22.495 66.5492 21.2703 69.4995 21.2703C70.7798 21.2703 71.9766 21.4651 73.09 21.8548C74.2033 22.2166 75.2053 22.7733 76.096 23.4413L77.9051 20.5466L79.7143 17.652C78.3226 16.6778 76.764 15.8985 75.0383 15.3975C73.3405 14.8687 71.4756 14.6182 69.5273 14.6182C66.911 14.6182 64.5452 15.0913 62.4577 15.9542C60.3702 16.817 58.5054 18.0695 56.9467 19.6281C53.2449 23.33 52.1872 27.0874 51.4636 30.5109C50.7121 33.9622 50.2946 37.1074 47.7618 39.6124C46.7041 40.67 45.5629 41.4772 44.2826 42.006C43.0023 42.5349 41.6385 42.8132 40.1633 42.8132C37.1295 42.8132 34.4018 41.5607 32.3978 39.5845C30.4217 37.6084 29.197 34.9086 29.197 31.9861C29.197 29.1193 30.4217 26.4473 32.3978 24.4711C34.374 22.495 37.1017 21.2425 40.1633 21.2146C41.4436 21.2425 42.6126 21.4373 43.6981 21.7713C44.7836 22.1053 45.7856 22.6341 46.6763 23.3021L48.5133 20.4075L50.3503 17.5128C48.9586 16.5387 47.3999 15.7872 45.7021 15.2862C44.0043 14.7852 42.1395 14.5347 40.1911 14.5347C37.1851 14.5347 34.374 15.2583 31.9247 16.5387C29.4754 17.819 27.3879 19.6281 25.8014 21.7991C25.189 19.8786 23.9087 18.2365 22.1552 17.0953C20.4017 15.9263 18.1751 15.2583 15.6701 15.2583H7.82113H0V32.0417V48.7695H17.2566C19.4276 48.7695 21.3759 48.2407 22.9902 47.35C24.6045 46.4593 25.8849 45.179 26.7755 43.676C28.3899 45.4573 30.3382 46.9047 32.5648 47.9067C34.7915 48.9087 37.2687 49.4653 39.9406 49.4653C43.058 49.4653 45.9248 48.7417 48.4019 47.4335C50.8791 46.1253 52.9666 44.2605 54.5809 41.9504C56.1117 44.2327 58.1992 46.0975 60.7042 47.4057C63.1814 48.7138 66.1038 49.4653 69.2212 49.4653C74.0363 49.4653 78.2948 47.517 81.3564 44.344C84.4181 41.2267 86.2829 36.8569 86.2829 32.0417ZM7.26446 28.8409V21.5208H15.5309C16.5886 21.5208 17.5071 21.9105 18.1751 22.5506C18.8431 23.1908 19.2606 24.1093 19.2606 25.1669C19.2606 26.2246 18.8431 27.1431 18.1751 27.7833C17.5071 28.4513 16.5608 28.8409 15.5309 28.8409H11.4116H7.26446ZM7.26446 42.5627V34.9642H17.1731C18.2864 34.9642 19.2606 35.3817 19.9842 36.0497C20.7079 36.7177 21.1532 37.6641 21.1532 38.7496C21.1532 39.835 20.7079 40.7814 19.9842 41.4772C19.2606 42.173 18.2864 42.5905 17.1731 42.5905H12.2188H7.26446V42.5627Z" fill="#88888A"/>
<path d="M102.791 44.7058C102.819 44.7615 102.819 44.845 102.819 44.9285C102.819 45.012 102.847 45.1233 102.847 45.2068C102.847 46.2645 102.485 47.183 101.845 47.851C101.204 48.519 100.286 48.9086 99.2282 48.9086C98.1705 48.9086 97.1964 48.4911 96.5005 47.7675C95.8047 47.0716 95.3872 46.0975 95.3872 45.012C95.3872 43.9265 95.8325 42.9523 96.5284 42.2565C97.2242 41.5607 98.1984 41.1153 99.2839 41.1153C99.7292 41.1153 100.147 41.171 100.536 41.2823C100.926 41.3937 101.288 41.5607 101.622 41.8112L101.316 42.2843L101.01 42.7575C100.759 42.5627 100.481 42.4235 100.202 42.34C99.924 42.2565 99.6179 42.2008 99.2839 42.2008C98.5324 42.2008 97.8644 42.507 97.3912 42.9802C96.918 43.4533 96.6119 44.1492 96.6119 44.9563C96.6119 45.7357 96.8902 46.4315 97.3634 46.9325C97.8365 47.4335 98.4767 47.7396 99.2282 47.7396C99.924 47.7396 100.481 47.517 100.898 47.1551C101.316 46.7933 101.566 46.2645 101.678 45.68H99.1447L99.4787 45.1512L99.8127 44.6223L102.791 44.7058ZM115.371 48.9643C116.457 48.9643 117.431 48.519 118.155 47.8231C118.851 47.1273 119.296 46.1531 119.296 45.0955C119.296 44.0378 118.851 43.0637 118.155 42.3678C117.459 41.672 116.457 41.2267 115.371 41.2267C114.286 41.2267 113.312 41.672 112.616 42.3678C111.92 43.0637 111.475 44.0378 111.475 45.0955C111.475 46.1531 111.92 47.1273 112.616 47.8231C113.312 48.519 114.286 48.9643 115.371 48.9643ZM122.107 41.3658V45.9305C122.107 46.4593 122.302 46.9603 122.636 47.2943C122.97 47.6283 123.443 47.851 124 47.851C124.556 47.851 125.03 47.6283 125.364 47.2943C125.698 46.9603 125.892 46.4593 125.892 45.9305V41.3658H127.061V45.9305C127.061 46.7933 126.727 47.5448 126.199 48.1015C125.642 48.6303 124.89 48.9643 124 48.9643C123.109 48.9643 122.358 48.6303 121.801 48.1015C121.244 47.5726 120.91 46.8211 120.91 45.9305V41.3658H122.107ZM107.522 41.3658C108.302 41.3658 108.942 41.6163 109.387 42.0617C109.833 42.4792 110.083 43.0915 110.083 43.7595C110.083 44.3162 109.916 44.7893 109.638 45.179C109.359 45.5687 108.942 45.847 108.413 45.9583L109.304 47.3778L110.194 48.7973H108.803L107.968 47.4613L107.133 46.1253H105.713V48.7973H104.516V41.3658H107.522ZM132.127 41.3658C132.906 41.3658 133.547 41.6442 134.02 42.0617C134.465 42.507 134.716 43.0915 134.716 43.7873C134.716 44.4553 134.465 45.0677 134.02 45.513C133.574 45.9583 132.906 46.2088 132.127 46.2088H130.429V48.7973H129.232V41.3658H132.127ZM115.371 47.851C114.62 47.851 113.952 47.5448 113.479 47.0438C113.006 46.5428 112.699 45.847 112.699 45.0955C112.699 44.344 113.006 43.6482 113.479 43.1472C113.952 42.6462 114.648 42.34 115.371 42.34C116.123 42.34 116.791 42.6462 117.292 43.1472C117.765 43.6482 118.071 44.344 118.071 45.0955C118.071 45.8748 117.765 46.5706 117.292 47.0438C116.819 47.5448 116.151 47.851 115.371 47.851ZM132.127 45.1512C132.517 45.1512 132.851 45.012 133.101 44.7893C133.352 44.5667 133.491 44.2327 133.491 43.8152C133.491 43.3977 133.352 43.0915 133.101 42.841C132.851 42.6183 132.517 42.4792 132.127 42.4792H130.429V45.1512H132.127ZM107.522 45.0398C107.912 45.0398 108.218 44.9285 108.469 44.7058C108.691 44.4832 108.831 44.177 108.831 43.7595C108.831 43.3698 108.691 43.0358 108.469 42.8132C108.246 42.5905 107.912 42.4513 107.522 42.4513H105.713V45.0398H107.522ZM166.946 31.6799C166.974 31.7356 166.974 31.8191 166.974 31.9026C166.974 31.9861 167.002 32.0974 167.002 32.1809C167.002 33.2385 166.64 34.157 166 34.825C165.36 35.493 164.441 35.9105 163.384 35.9105C162.298 35.9105 161.352 35.493 160.656 34.7694C159.96 34.0735 159.543 33.0994 159.543 32.0139C159.543 30.9284 159.96 29.9542 160.684 29.2584C161.38 28.5626 162.354 28.1172 163.439 28.1172C163.885 28.1172 164.302 28.1729 164.692 28.2842C165.082 28.3956 165.443 28.5626 165.777 28.8131L165.471 29.2862L165.165 29.7594C164.915 29.5646 164.636 29.4254 164.358 29.3419C164.08 29.2584 163.773 29.2027 163.439 29.2027C162.688 29.2027 162.02 29.5089 161.547 29.9821C161.074 30.4831 160.767 31.1789 160.767 31.9582C160.767 32.7376 161.046 33.4334 161.519 33.9344C161.992 34.4354 162.632 34.7415 163.384 34.7415C164.08 34.7415 164.636 34.5189 165.054 34.157C165.471 33.7952 165.722 33.2664 165.833 32.6819H163.3L163.634 32.1531L163.968 31.6242L166.946 31.6799ZM128.509 28.3399V32.9046C128.509 33.4334 128.704 33.9344 129.038 34.2684C129.372 34.6024 129.845 34.825 130.401 34.825C130.958 34.825 131.431 34.6024 131.765 34.2684C132.099 33.9344 132.294 33.4334 132.294 32.9046V28.3399H133.463V32.9046C133.463 33.7674 133.129 34.5189 132.6 35.0755C132.044 35.6044 131.292 35.9384 130.401 35.9384C129.511 35.9384 128.759 35.6044 128.203 35.0755C127.646 34.5467 127.312 33.7952 127.312 32.9046V28.3399H128.509ZM122.97 35.9384C123.805 35.9384 124.445 35.6879 124.89 35.2982C125.336 34.8807 125.586 34.324 125.586 33.6839C125.586 32.988 125.308 32.5149 124.89 32.2087C124.473 31.8747 123.916 31.7077 123.332 31.5129C122.859 31.3737 122.441 31.2624 122.163 31.0676C121.884 30.9006 121.717 30.6779 121.717 30.3161C121.717 30.0099 121.829 29.7594 122.024 29.5646C122.246 29.3697 122.552 29.2584 122.998 29.2584C123.276 29.2584 123.554 29.3141 123.833 29.3976C124.111 29.4811 124.389 29.6202 124.668 29.8151L124.974 29.3419L125.28 28.8687C124.974 28.6461 124.64 28.4791 124.278 28.3677C123.888 28.2564 123.499 28.1729 123.053 28.1729C122.274 28.1729 121.634 28.3956 121.216 28.7852C120.799 29.1749 120.548 29.7316 120.548 30.3717C120.548 31.0954 120.827 31.5407 121.244 31.8469C121.662 32.1531 122.218 32.3479 122.803 32.5149C123.276 32.6541 123.694 32.7932 123.972 32.9602C124.25 33.1272 124.417 33.3499 124.417 33.7117C124.417 34.0179 124.306 34.2962 124.055 34.491C123.833 34.6859 123.471 34.7972 122.998 34.7972C122.608 34.7972 122.274 34.7137 121.94 34.6024C121.606 34.4632 121.272 34.2962 120.966 34.1014L120.66 34.5745L120.354 35.0477C120.66 35.2704 121.022 35.493 121.467 35.66C121.884 35.827 122.385 35.9384 122.97 35.9384ZM106.743 35.9384C107.829 35.9384 108.803 35.493 109.526 34.7972C110.222 34.1014 110.668 33.1272 110.668 32.0696C110.668 31.0119 110.222 30.0377 109.526 29.3141C108.803 28.6182 107.829 28.1729 106.743 28.1729C105.658 28.1729 104.683 28.6182 103.988 29.3141C103.292 30.0099 102.847 30.9841 102.847 32.0696C102.847 33.1272 103.292 34.1014 103.988 34.7972C104.683 35.493 105.658 35.9384 106.743 35.9384ZM95.3594 32.0696C95.3594 33.1551 95.8047 34.1292 96.5005 34.825C97.2242 35.5209 98.1984 35.9662 99.3117 35.9662C99.8405 35.9662 100.286 35.8827 100.703 35.7435C101.121 35.6044 101.455 35.4095 101.817 35.1312L101.511 34.658L101.204 34.1849C100.926 34.4075 100.62 34.5745 100.314 34.6859C100.008 34.7972 99.6457 34.8529 99.2839 34.8529C98.5602 34.8529 97.8922 34.5467 97.419 34.0457C96.9459 33.5447 96.6397 32.8489 96.6397 32.0696C96.6397 31.2902 96.918 30.5944 97.419 30.0934C97.8922 29.5924 98.5602 29.2862 99.2839 29.2862C99.6735 29.2862 100.008 29.3419 100.314 29.4532C100.62 29.5646 100.926 29.7316 101.204 29.9542L101.511 29.4811L101.817 29.0079C101.483 28.7574 101.121 28.5347 100.703 28.3956C100.286 28.2564 99.8405 28.1729 99.3117 28.1729C98.1984 28.1729 97.2242 28.5904 96.5005 29.3141C95.8047 30.0099 95.3594 30.9841 95.3594 32.0696ZM149.105 35.7714H147.908V28.3399H149.105V35.7714ZM152.891 35.7714H151.749V28.3399H153.225L154.95 31.1511L156.676 33.9622V28.3399H157.817V35.7714H156.425L154.644 32.9046L152.863 30.0377V35.7714H152.891ZM146.099 29.4532H143.761V35.7714H142.537V29.4532H140.226V28.3399H146.099V29.4532ZM136.775 34.658H140.449V35.7714H135.578V28.3399H136.775V34.658ZM113.507 35.7714H112.365V28.3399H113.841L115.566 31.1511L117.292 33.9622V28.3399H118.433V35.7714H117.041L115.26 32.9046L113.479 30.0377V35.7714H113.507ZM106.743 34.825C105.992 34.825 105.324 34.5189 104.85 34.0179C104.377 33.5169 104.071 32.8211 104.071 32.0696C104.071 31.2902 104.377 30.5944 104.85 30.1212C105.324 29.6202 106.019 29.3141 106.743 29.3141C107.495 29.3141 108.163 29.6202 108.664 30.1212C109.137 30.6222 109.443 31.3181 109.443 32.0696C109.443 32.8489 109.137 33.5447 108.664 34.0179C108.163 34.5189 107.495 34.825 106.743 34.825ZM128.537 22.8846C129.622 22.8846 130.596 22.4393 131.32 21.7434C132.016 21.0476 132.461 20.0734 132.461 19.0158C132.461 17.9581 132.016 16.984 131.32 16.2603C130.624 15.5645 129.65 15.1191 128.537 15.1191C127.451 15.1191 126.477 15.5645 125.781 16.2603C125.085 16.9561 124.64 17.9303 124.64 19.0158C124.64 20.0734 125.085 21.0476 125.781 21.7434C126.477 22.4671 127.451 22.8846 128.537 22.8846ZM114.23 22.8846C115.065 22.8846 115.705 22.6619 116.151 22.2444C116.596 21.8269 116.847 21.2703 116.847 20.6301C116.847 19.9343 116.568 19.4611 116.151 19.155C115.733 18.8488 115.177 18.654 114.592 18.4591C114.119 18.32 113.701 18.2086 113.423 18.0138C113.145 17.8468 112.978 17.6241 112.978 17.2623C112.978 16.9561 113.089 16.7056 113.284 16.5108C113.507 16.316 113.813 16.2046 114.258 16.2046C114.536 16.2046 114.815 16.2603 115.093 16.3438C115.371 16.4273 115.65 16.5665 115.928 16.7613L116.234 16.2881L116.54 15.815C116.234 15.5923 115.9 15.4253 115.538 15.314C115.149 15.2026 114.759 15.1191 114.314 15.1191C113.534 15.1191 112.894 15.3418 112.477 15.7315C112.059 16.1211 111.809 16.6778 111.809 17.318C111.809 18.0416 112.087 18.487 112.505 18.7931C112.922 19.0993 113.479 19.2941 114.063 19.4611C114.536 19.6003 114.954 19.7394 115.232 19.9064C115.511 20.0734 115.678 20.2961 115.678 20.6579C115.678 20.9641 115.566 21.2424 115.316 21.4373C115.093 21.6321 114.731 21.7434 114.258 21.7434C113.868 21.7434 113.534 21.6599 113.2 21.5486C112.866 21.4094 112.532 21.2424 112.226 21.0476L111.92 21.5208L111.614 21.9939C111.92 22.2166 112.282 22.4393 112.727 22.6063C113.145 22.8011 113.646 22.8846 114.23 22.8846ZM106.52 22.8846C107.606 22.8846 108.58 22.4393 109.304 21.7434C110 21.0476 110.445 20.0734 110.445 19.0158C110.445 17.9581 110 16.984 109.304 16.2603C108.608 15.5645 107.634 15.1191 106.52 15.1191C105.435 15.1191 104.461 15.5645 103.765 16.2603C103.069 16.9561 102.624 17.9303 102.624 19.0158C102.624 20.0734 103.069 21.0476 103.765 21.7434C104.461 22.4671 105.435 22.8846 106.52 22.8846ZM135.634 15.314L137.36 18.1251L139.085 20.9363V15.314H140.226V22.7454H138.835L137.054 19.8786L135.272 17.0118V22.7733H134.159V15.3418L135.634 15.314ZM123.888 15.314V16.4273H121.55V22.7454H120.326V16.4273H118.016V15.314H123.888ZM98.6715 15.314C99.3395 15.314 99.8962 15.5366 100.314 15.8706C100.731 16.2325 100.982 16.7335 100.982 17.2901C100.982 17.6241 100.898 17.9025 100.759 18.153C100.592 18.4035 100.397 18.6261 100.119 18.7653C100.481 18.9323 100.787 19.1828 100.982 19.4889C101.177 19.7951 101.288 20.1569 101.288 20.5466C101.288 21.1589 101.037 21.6878 100.62 22.0774C100.202 22.4671 99.6179 22.6898 98.922 22.6898H95.749V15.2583L98.6715 15.314ZM128.537 21.7713C127.785 21.7713 127.117 21.4651 126.644 20.9641C126.171 20.4631 125.865 19.7673 125.865 19.0158C125.865 18.2643 126.171 17.5406 126.644 17.0675C127.117 16.5665 127.813 16.2603 128.537 16.2603C129.288 16.2603 129.956 16.5665 130.457 17.0675C130.93 17.5685 131.236 18.2643 131.236 19.0158C131.236 19.7951 130.93 20.4909 130.457 20.9641C129.956 21.4929 129.288 21.7713 128.537 21.7713ZM106.52 21.7713C105.769 21.7713 105.101 21.4651 104.628 20.9641C104.155 20.4631 103.848 19.7673 103.848 19.0158C103.848 18.2643 104.155 17.5406 104.628 17.0675C105.101 16.5665 105.797 16.2603 106.52 16.2603C107.272 16.2603 107.94 16.5665 108.441 17.0675C108.914 17.5685 109.22 18.2643 109.22 19.0158C109.22 19.7951 108.914 20.4909 108.441 20.9641C107.94 21.4929 107.272 21.7713 106.52 21.7713ZM98.8664 21.6599C99.2004 21.6599 99.4787 21.5486 99.7014 21.3259C99.8962 21.1311 100.035 20.8528 100.035 20.5466C100.035 20.2404 99.924 19.9621 99.7014 19.7673C99.4787 19.5724 99.2004 19.4611 98.8664 19.4611H96.9459V21.6321L98.8664 21.6599ZM98.6715 18.4591C98.9777 18.4591 99.256 18.3478 99.4508 18.153C99.6457 17.9581 99.757 17.7076 99.757 17.4015C99.757 17.0953 99.6457 16.8448 99.4508 16.65C99.256 16.4551 98.9777 16.3438 98.6715 16.3438H96.9459V18.4313L98.6715 18.4591Z" fill="#88888A"/>
</svg>
