<svg width="69" height="64" viewBox="0 0 69 64" fill="none" xmlns="http://www.w3.org/2000/svg">
<path d="M11.6829 22.2583C18.0102 22.2583 23.1415 27.3397 23.1415 33.6185V44.4951H16.5612V33.6139C16.5612 30.9341 14.3785 28.7628 11.6783 28.7628C8.98036 28.7628 6.78846 30.9341 6.78846 33.6139C6.78846 36.2892 8.98266 38.4535 11.6783 38.4535H16.5612L10.4754 44.9102C4.71386 44.3104 0.226562 39.4844 0.226562 33.6162C0.226562 27.3397 5.35786 22.2583 11.6829 22.2583ZM26.1936 14.1572H33.0476V44.4814H26.1936V14.1572ZM36.3918 14.1572H43.2389V44.4814H36.3918V14.1572ZM68.7666 22.5662L57.2919 52.8448H50.1504L53.6556 44.3811L45.2192 22.5685H52.3998L57.0711 36.109L61.5653 22.5685C61.5676 22.5662 68.7666 22.5662 68.7666 22.5662Z" fill="#777777"/>
</svg>
