<svg width="125" height="64" viewBox="0 0 125 64" fill="none" xmlns="http://www.w3.org/2000/svg">
<path d="M109.886 18.335C102.013 18.335 95.62 24.4506 95.62 32.0001C95.62 39.5495 102.013 45.6652 109.886 45.6652C117.759 45.6652 124.153 39.5495 124.153 32.0001C124.153 24.4506 117.759 18.335 109.886 18.335ZM0.84375 19.4314V23.8598H11.5001V40.1823H0.84375V44.6108H26.7667V40.1823H16.1537V23.8598H26.7667V19.4314H0.84375ZM33.6393 19.4314V44.568H46.0788C54.1254 44.4836 59.6489 39.0014 59.6489 31.9581C59.6489 24.9991 54.2124 19.6422 46.2962 19.4314H33.6393ZM65.3033 19.4314V44.6108H91.4879V40.1823H70.0011V34.2349H86.7468V29.8064H70.0011V23.8598H91.4879V19.4314H65.3033ZM109.886 23.1012C115.018 23.1012 119.237 27.1075 119.237 32.0421C119.237 36.9767 115.018 40.983 109.886 40.983C104.753 40.983 100.534 36.9767 100.534 32.0421C100.534 27.1075 104.71 23.1012 109.886 23.1012ZM38.2929 23.7758H46.1654C51.2543 23.9023 54.6036 27.3606 54.6036 32.0421C54.5602 36.7658 51.2112 40.182 46.0788 40.2664H38.2929V23.7758Z" fill="#88888A"/>
</svg>
