<svg width="195" height="64" viewBox="0 0 195 64" fill="none" xmlns="http://www.w3.org/2000/svg">
<path d="M27.784 29.3259L15.1638 36.4302L1.64903 28.8396L1 29.1904V34.7016L15.1638 42.6446L27.784 35.5659V38.4841L15.1638 45.5883L1.64903 37.9977L1 38.3486V39.2942L15.1638 47.2372L29.3005 39.2942V33.783L28.6499 33.4322L15.1638 40.9957L2.51653 33.9186V31.0003L15.1638 38.0791L29.3005 30.136V24.7062L28.5957 24.3012L15.1638 31.8375L3.16555 25.1384L15.1638 18.4121L25.022 23.9503L25.8879 23.464V22.7878L15.1638 16.7632L1 24.7062V25.5705L15.1638 33.5135L27.784 26.4077V29.3259Z" fill="#AFAFB2"/>
<path d="M55.7565 42.7308V18.4712H52.0186V27.548C52.0186 27.6836 51.9372 27.7904 51.8017 27.8446C51.6661 27.8988 51.5306 27.8446 51.4493 27.7633C50.1767 26.2771 48.1993 25.4399 46.0338 25.4399C41.4029 25.4399 37.7734 29.3293 37.7734 34.3014C37.7734 36.7333 38.6122 38.9754 40.1575 40.6227C41.7011 42.27 43.7869 43.1614 46.0338 43.1614C48.2807 43.1614 50.1496 42.27 51.4493 40.7295C51.5306 40.6211 51.6933 40.594 51.8017 40.6211C51.9372 40.6753 52.0186 40.7837 52.0186 40.9177V42.7276H55.7565V42.7308ZM46.8471 39.7871C43.8682 39.7871 41.5384 37.3823 41.5384 34.303C41.5384 31.2237 43.8682 28.819 46.8471 28.819C49.8259 28.819 52.1557 31.2237 52.1557 34.303C52.1557 37.3823 49.8259 39.7871 46.8471 39.7871Z" fill="#77777B"/>
<path d="M75.745 42.7326V25.8483H72.0342V27.5498C72.0342 27.6853 71.9529 27.7938 71.8173 27.8464C71.6818 27.9006 71.5462 27.8464 71.4649 27.738C70.2195 26.2517 68.2692 25.4146 66.0494 25.4146C61.4185 25.4146 57.7891 29.3055 57.7891 34.2761C57.7891 39.2467 61.4185 43.1376 66.0494 43.1376C68.1895 43.1376 70.1652 42.2462 71.4649 40.6787C71.5462 40.5702 71.7089 40.5431 71.8173 40.5702C71.9529 40.6245 72.0342 40.7329 72.0342 40.8668V42.7039H75.745V42.731V42.7326ZM66.8882 39.7873C63.9094 39.7873 61.5796 37.3825 61.5796 34.3032C61.5796 31.2239 63.9094 28.8192 66.8882 28.8192C69.867 28.8192 72.1968 31.2239 72.1968 34.3032C72.1968 37.3825 69.8686 39.7873 66.8882 39.7873Z" fill="#77777B"/>
<path d="M107.504 42.7326V25.8483H103.794V27.5498C103.794 27.6854 103.712 27.7938 103.577 27.8464C103.441 27.9006 103.306 27.8464 103.224 27.738C101.979 26.2517 100.029 25.4146 97.8072 25.4146C93.1492 25.4146 89.5469 29.3055 89.5469 34.3032C89.5469 39.3009 93.1763 43.1648 97.8072 43.1648C99.9473 43.1648 101.923 42.2733 103.224 40.7058C103.306 40.5973 103.468 40.5702 103.577 40.5973C103.712 40.6516 103.794 40.76 103.794 40.894V42.731H107.504V42.7326ZM98.6476 39.7873C95.6688 39.7873 93.339 37.3825 93.339 34.3032C93.339 31.2239 95.6672 28.8192 98.6476 28.8192C101.628 28.8192 103.956 31.2239 103.956 34.3032C103.956 37.3825 101.628 39.7873 98.6476 39.7873Z" fill="#77777B"/>
<path d="M114.306 40.7329C114.333 40.7329 114.388 40.7058 114.415 40.7058C114.496 40.7058 114.605 40.76 114.659 40.8143C115.931 42.3005 117.909 43.1377 120.076 43.1377C124.707 43.1377 128.336 39.2483 128.336 34.2761C128.336 31.8443 127.496 29.6022 125.952 27.9549C124.409 26.3076 122.323 25.4162 120.076 25.4162C117.829 25.4162 115.96 26.3076 114.659 27.848C114.577 27.9565 114.442 27.9836 114.306 27.9565C114.171 27.9023 114.089 27.7938 114.089 27.6599V18.4746H110.352V42.7342H114.089V41.0327C114.089 40.8972 114.171 40.7887 114.306 40.7361M113.927 34.3032C113.927 31.2239 116.255 28.8192 119.235 28.8192C122.216 28.8192 124.544 31.2239 124.544 34.3032C124.544 37.3825 122.216 39.7873 119.235 39.7873C116.255 39.7873 113.927 37.3554 113.927 34.3032Z" fill="#77777B"/>
<path d="M139.145 29.3082C139.497 29.3082 139.822 29.3353 140.038 29.3895V25.5528C139.902 25.5256 139.658 25.4985 139.414 25.4985C137.464 25.4985 135.676 26.4984 134.729 28.0915C134.648 28.227 134.512 28.2812 134.377 28.227C134.241 28.1999 134.133 28.0643 134.133 27.9304V25.851H130.422V42.7624H134.16V35.3057C134.16 31.6045 136.056 29.3082 139.143 29.3082" fill="#77777B"/>
<path d="M146.183 25.8496H142.391V42.761H146.183V25.8496Z" fill="#77777B"/>
<path d="M144.225 18.498C142.952 18.498 141.922 19.525 141.922 20.7944C141.922 22.0637 142.95 23.0907 144.225 23.0907C145.499 23.0907 146.527 22.0637 146.527 20.7944C146.527 19.525 145.499 18.498 144.225 18.498Z" fill="#77777B"/>
<path d="M157.286 25.416C152.087 25.416 148.32 29.1443 148.32 34.3047C148.32 36.8179 149.215 39.06 150.811 40.6801C152.438 42.3003 154.712 43.1933 157.257 43.1933C159.37 43.1933 160.995 42.7883 164.082 40.5191L161.944 38.277C160.425 39.2768 159.017 39.7632 157.638 39.7632C154.495 39.7632 152.14 37.4127 152.14 34.3063C152.14 31.1999 154.495 28.8493 157.638 28.8493C159.126 28.8493 160.508 29.3357 161.891 30.3356L164.273 28.0935C161.484 25.7158 158.965 25.4192 157.287 25.4192" fill="#77777B"/>
<path d="M170.657 35.3028C170.712 35.2486 170.793 35.2215 170.876 35.2215H170.903C170.984 35.2215 171.066 35.2757 171.147 35.33L177.132 42.7324H181.735L173.99 33.3845C173.88 33.2489 173.88 33.0607 174.017 32.9523L181.139 25.8481H176.562L170.415 32.0083C170.334 32.0896 170.198 32.1167 170.063 32.0896C169.954 32.0354 169.873 31.9269 169.873 31.793V18.5015H166.109V42.7611H169.847V36.1687C169.847 36.0874 169.874 35.979 169.956 35.9264L170.659 35.3044L170.657 35.3028Z" fill="#77777B"/>
<path d="M187.826 43.1648C190.886 43.1648 194 41.3006 194 37.762C194 35.4386 192.538 33.8456 189.559 32.8728L187.528 32.1967C186.147 31.7374 185.496 31.0884 185.496 30.197C185.496 29.17 186.418 28.4683 187.717 28.4683C189.017 28.4683 190.073 29.2784 190.778 30.6833L193.784 29.0616C192.674 26.7924 190.371 25.3875 187.717 25.3875C184.359 25.3875 181.922 27.5482 181.922 30.4936C181.922 32.8441 183.331 34.4101 186.226 35.3302L188.312 36.0047C189.775 36.464 190.396 37.0588 190.396 38.0044C190.396 39.4364 189.068 39.9499 187.931 39.9499C186.415 39.9499 185.061 38.9772 184.412 37.3825L181.352 39.0043C182.353 41.5717 184.817 43.1648 187.823 43.1648" fill="#77777B"/>
<path d="M86.1422 43.002C87.3334 43.002 88.3907 42.8936 88.9855 42.8122V39.5703C88.4976 39.6245 87.6316 39.6787 87.1166 39.6787C85.6 39.6787 84.4359 39.4092 84.4359 36.1402V29.197C84.4359 29.0072 84.5715 28.8733 84.7612 28.8733H88.4178V25.8211H84.7612C84.5715 25.8211 84.4359 25.6856 84.4359 25.4974V20.6353H80.698V25.5245C80.698 25.7143 80.5625 25.8482 80.3727 25.8482H77.7734V28.9004H80.3727C80.5625 28.9004 80.698 29.0359 80.698 29.2241V37.0858C80.698 43.002 84.6512 43.002 86.1422 43.002Z" fill="#77777B"/>
</svg>
