<svg width="144" height="64" viewBox="0 0 144 64" fill="none" xmlns="http://www.w3.org/2000/svg">
<g clip-path="url(#clip0_1691_2758)">
<path d="M15.1842 21.9319C14.2248 21.9319 13.5156 22.3547 12.8899 23.2849L11.0545 25.9908V18.2959H6.63268V25.9908L4.79722 23.2849C4.17149 22.3547 3.46234 21.9319 2.5029 21.9319C1.00116 21.9319 0 23.0312 0 24.3841C0 25.5257 0.542294 26.2867 1.6686 27.0477L8.80185 31.6985L15.9351 27.0477C17.0614 26.2867 17.6037 25.568 17.6037 24.3841C17.6454 23.0312 16.6443 21.9319 15.1842 21.9319Z" fill="#767676"/>
<path d="M8.8032 32.8398C13.0581 32.8398 16.5205 36.0531 16.5205 40.6615H1.08594C1.08594 36.0531 4.58999 32.8398 8.8032 32.8398Z" fill="#9E9E9E"/>
<path d="M25.5682 23.2004C23.9413 23.2004 22.8984 22.1857 22.8984 20.579C22.8984 19.0147 23.983 18 25.5682 18C27.1951 18 28.2379 19.0147 28.2379 20.6213C28.2379 22.2279 27.1951 23.2004 25.5682 23.2004ZM27.9459 24.2151V40.6618H23.1487V24.2151H27.9459ZM35.0792 24.2151V27.2592H35.3295C36.2472 25.1029 37.8324 23.8768 40.377 23.8768C43.8393 23.8768 45.9668 25.9485 45.9668 30.0074V40.6618H41.1696V30.9375C41.1696 28.6544 40.2101 27.6397 38.2913 27.6397C36.3307 27.6397 35.2043 28.739 35.2043 31.0643V40.6618H30.4071V24.2151H35.0792ZM52.0572 35.4614C52.224 36.8989 53.1001 37.6176 54.6435 37.6176C56.3538 37.6176 57.0213 36.9412 57.0213 36.0533C57.0213 35.1654 56.5624 34.6158 55.1024 34.489L53.0166 34.2353C49.304 33.8125 47.7605 32.1213 47.7605 29.3309C47.7605 26.2022 50.0966 23.9191 54.5601 23.9191C58.9402 23.9191 60.9842 26.0331 61.2762 29.2463H56.8544C56.7293 28.0202 56.0201 27.3015 54.4767 27.3015C52.8915 27.3015 52.1823 27.9779 52.1823 28.8658C52.1823 29.6691 52.6829 30.0919 53.8926 30.261L56.2287 30.557C59.8996 31.0643 61.4848 32.5441 61.4848 35.5037C61.4848 38.7169 59.0236 41 54.6018 41C50.0549 41 47.7605 38.8015 47.4268 35.4614H52.0572ZM64.2797 35.8419V28.0625H62.2356V24.8493C64.9054 24.6801 65.9483 23.6654 66.0317 21.171H69.0769V24.2151H72.7061V28.0625H69.0769V34.9963C69.0769 36.6452 69.7443 37.1526 71.0792 37.1526C71.4546 37.1526 71.8718 37.1103 72.2889 37.0257V40.704C71.4964 40.9154 70.7455 41 69.9112 41C65.9483 41 64.2797 39.182 64.2797 35.8419ZM83.4685 37.9136H83.26C82.5091 39.8585 81.0908 40.9577 78.5879 40.9577C75.3758 40.9577 73.6238 38.9283 73.6238 36.307C73.6238 33.8971 74.9587 32.2059 78.6713 31.4871L81.4245 30.9798C82.8428 30.7261 83.3434 30.2187 83.3434 29.3732C83.3434 28.2316 82.5508 27.5974 81.0491 27.5974C79.3805 27.5974 78.5462 28.3585 78.3793 29.6691H73.8324C74.333 26.1176 76.8776 23.8768 81.2159 23.8768C85.888 23.8768 88.1406 26.2868 88.1406 29.9651V40.6195H83.5103V37.9136H83.4685ZM83.3017 33.0937C82.8845 33.3897 82.3422 33.6434 81.5914 33.8125L80.1731 34.1507C78.9216 34.4467 78.4628 35.0386 78.4628 35.9265C78.4628 37.068 79.2553 37.7445 80.6319 37.7445C82.2588 37.7445 83.3434 36.8566 83.3434 34.7426V33.0937H83.3017ZM98.5276 23.8768C103.575 23.8768 106.412 26.6673 106.745 31.1489H101.99C101.74 29.1195 100.655 27.8088 98.4859 27.8088C96.0247 27.8088 94.6481 29.3732 94.6481 32.2904C94.6481 35.4191 96.1499 36.9835 98.5276 36.9835C100.572 36.9835 101.823 35.7574 102.073 33.5588H106.829C106.37 38.1673 103.325 40.9154 98.3608 40.9154C92.8961 40.9154 89.7675 37.5754 89.7675 32.4173C89.8509 27.3015 93.2716 23.8768 98.5276 23.8768ZM117.925 37.9136H117.717C116.966 39.8585 115.547 40.9577 113.044 40.9577C109.832 40.9577 108.08 38.9283 108.08 36.307C108.08 33.8971 109.415 32.2059 113.128 31.4871L115.881 30.9798C117.299 30.7261 117.8 30.2187 117.8 29.3732C117.8 28.2316 117.007 27.5974 115.506 27.5974C113.837 27.5974 113.003 28.3585 112.836 29.6691H108.289C108.79 26.1176 111.334 23.8768 115.672 23.8768C120.345 23.8768 122.597 26.2868 122.597 29.9651V40.6195H117.967V37.9136H117.925ZM117.758 33.0937C117.341 33.3897 116.799 33.6434 116.048 33.8125L114.63 34.1507C113.378 34.4467 112.919 35.0386 112.919 35.9265C112.919 37.068 113.712 37.7445 115.088 37.7445C116.715 37.7445 117.8 36.8566 117.8 34.7426V33.0937H117.758ZM129.397 24.2151V28.1893H129.647C130.44 24.8493 131.608 23.9191 133.193 23.9191C133.526 23.9191 133.86 23.9614 134.152 24.0882V28.6544C133.777 28.6121 133.36 28.5699 132.859 28.5699C130.606 28.5699 129.689 29.5 129.689 32.079V40.704H124.891V24.2151H129.397ZM135.612 24.3842C136.864 23.8768 137.364 22.8621 137.448 21.171H140.409V24.2151H144.039V28.0625H140.409V34.9963C140.409 36.6452 141.077 37.1526 142.412 37.1526C142.787 37.1526 143.204 37.1103 143.621 37.0257V40.704C142.829 40.9154 142.078 41 141.244 41C137.323 41 135.612 39.2243 135.612 35.8419V24.3842Z" fill="#7C7C80"/>
</g>
<defs>
<clipPath id="clip0_1691_2758">
<rect width="144" height="64" fill="white"/>
</clipPath>
</defs>
</svg>
