<svg width="153" height="64" viewBox="0 0 153 64" fill="none" xmlns="http://www.w3.org/2000/svg">
<path d="M0.648438 17.6884C0.648438 16.0389 1.98566 14.7017 3.63521 14.7017H15.3182C16.9677 14.7017 18.305 16.0389 18.305 17.6884V19.9993C18.305 20.824 17.6364 21.4927 16.8117 21.4927H2.14182C1.31705 21.4927 0.648438 20.824 0.648438 19.9993V17.6884Z" fill="#7C7C80"/>
<path d="M0.648438 27.0603C0.648438 26.2355 1.31705 25.5669 2.14182 25.5669H30.2584C31.9079 25.5669 33.2452 26.9041 33.2452 28.5537V36.2974C33.2452 37.122 32.5766 37.7907 31.7519 37.7907H3.63521C1.98566 37.7907 0.648438 36.4534 0.648438 34.8039V27.0603Z" fill="#7C7C80"/>
<path d="M15.5938 43.3586C15.5938 42.5339 16.2624 41.8652 17.0871 41.8652H31.757C32.5817 41.8652 33.2503 42.5339 33.2503 43.3586V44.3112C33.2503 45.9607 31.9131 47.298 30.2635 47.298H18.5806C16.931 47.298 15.5938 45.9607 15.5938 44.3112V43.3586Z" fill="#7C7C80"/>
<path d="M51.7105 34.7225H54.85L60.6805 44.2532H67.8191L61.3533 34.0497C64.9413 32.8163 67.0342 30.0506 67.0342 26.0514C67.0342 20.4451 63.1099 17.4177 56.7934 17.4177H45.4688V44.2532H51.7105V34.7225ZM51.7105 29.6395V22.6876H56.4571C59.4097 22.6876 60.9047 23.9584 60.9047 26.1636C60.9047 28.3313 59.4097 29.6395 56.4571 29.6395H51.7105Z" fill="#7C7C80"/>
<path d="M78.5652 44.664C82.4895 44.664 86.0776 42.6832 87.5353 38.9083L82.527 37.3011C81.9664 39.0204 80.5088 39.9174 78.64 39.9174C76.36 39.9174 74.753 38.3851 74.3419 35.6939H87.6848V34.1243C87.6848 28.5552 84.4331 24.145 78.4531 24.145C72.772 24.145 68.5859 28.5552 68.5859 34.3859C68.5859 40.5154 72.6225 44.664 78.5652 44.664ZM78.3783 28.7796C80.5835 28.7796 81.7421 30.2746 81.7795 32.0311H74.5287C75.1266 29.8635 76.5469 28.7796 78.3783 28.7796Z" fill="#7C7C80"/>
<path d="M91.0589 38.9832C91.0589 43.0198 93.1893 44.4401 97.4501 44.4401C98.8703 44.4401 99.9915 44.328 101.038 44.1785V39.2823C100.365 39.357 100.029 39.3943 99.3188 39.3943C97.8239 39.3943 96.9641 39.0954 96.9641 37.4509V29.4899H100.814V24.5564H96.9641V19.0996H91.0589V24.5564H88.5547V29.4899H91.0589V38.9832Z" fill="#7C7C80"/>
<path d="M122.437 34.4232C122.437 28.2937 118.363 24.145 112.57 24.145C106.74 24.145 102.703 28.2937 102.703 34.4232C102.703 40.5528 106.74 44.664 112.57 44.664C118.363 44.664 122.437 40.5528 122.437 34.4232ZM108.646 34.4232C108.646 30.9847 110.178 29.0412 112.57 29.0412C114.962 29.0412 116.495 30.9847 116.495 34.4232C116.495 37.8618 114.962 39.8052 112.57 39.8052C110.178 39.8052 108.646 37.8618 108.646 34.4232Z" fill="#7C7C80"/>
<path d="M143.976 34.4232C143.976 28.2937 139.903 24.145 134.109 24.145C128.279 24.145 124.242 28.2937 124.242 34.4232C124.242 40.5528 128.279 44.664 134.109 44.664C139.903 44.664 143.976 40.5528 143.976 34.4232ZM130.185 34.4232C130.185 30.9847 131.717 29.0412 134.109 29.0412C136.502 29.0412 138.034 30.9847 138.034 34.4232C138.034 37.8618 136.502 39.8052 134.109 39.8052C131.717 39.8052 130.185 37.8618 130.185 34.4232Z" fill="#7C7C80"/>
<path d="M152.769 17.418H146.789V44.2534H152.769V17.418Z" fill="#7C7C80"/>
</svg>
