<svg width="79" height="64" viewBox="0 0 79 64" fill="none" xmlns="http://www.w3.org/2000/svg">
<path d="M1 25.3413H6.77671V44.0581H1V25.3413Z" fill="#767676"/>
<path d="M9.86719 25.3406H15.4127V27.06C15.4127 27.06 16.376 24.8791 20.9583 24.8784C26.8116 24.8781 27.8904 28.7293 27.8904 33.7366V44.0571H22.1142V34.8915C22.1142 32.7345 22.0755 29.9622 19.1099 29.9622C16.1058 29.9622 15.6439 32.3111 15.6439 34.7376V44.0571H9.86719V25.3406Z" fill="#767676"/>
<path d="M30.9688 22.0286C30.9688 17.9459 32.0083 14.4805 38.2854 14.4805C39.4403 14.4805 40.5968 14.5571 41.6747 14.8272L41.4047 19.7178C40.7497 19.4865 40.2111 19.3327 39.5177 19.3327C37.6693 19.3327 36.7453 19.9106 36.7453 22.3753V25.3405H41.0196V29.9621H36.7453V44.057H30.9688L30.9688 22.0286Z" fill="#767676"/>
<path d="M52.172 24.8789C57.9475 24.8789 62.5698 28.7294 62.5698 34.6988C62.5698 40.6679 57.9475 44.5187 52.172 44.5187C46.3944 44.5187 41.7734 40.6679 41.7734 34.6988C41.7734 28.7294 46.3944 24.8789 52.172 24.8789ZM52.172 39.4359C55.06 39.4359 56.7936 37.5099 56.7936 34.6988C56.7936 31.8871 55.06 29.9621 52.172 29.9621C49.2825 29.9621 47.551 31.8871 47.551 34.6988C47.551 37.5099 49.2825 39.4359 52.172 39.4359Z" fill="#767676"/>
<path d="M64.8359 25.3409H70.6122V26.9769C70.6122 26.9769 72.1192 24.6127 78.0068 24.8656V29.9363C77.1976 29.7053 76.3891 29.5515 75.5421 29.5515C71.152 29.5515 70.6122 32.7103 70.6122 36.445V44.0574H64.8359V25.3409Z" fill="#767676"/>
<path d="M1 19.1728L6.77658 15.2148V22.2579H1V19.1728Z" fill="#767676"/>
</svg>
