<svg width="164" height="35" viewBox="0 0 164 35" fill="none" xmlns="http://www.w3.org/2000/svg">
<path d="M0.0957031 10.3261V20.663L4.99788 27.8261L9.90005 35H15.6066C20.7261 35 21.3131 34.9783 21.2479 34.8261C21.2153 34.7391 19.8892 31.5326 18.3022 27.7174C16.7153 23.8913 15.4218 20.7391 15.4218 20.7065C15.4218 20.6739 18.4327 20.6522 22.1066 20.6522H28.7914V10.3261V-6.51926e-07H14.4435H0.0957031V10.3261Z" fill="#7C7C80"/>
<path d="M96.2906 9.23925V14.0219L95.7254 13.5762C93.8667 12.0979 91.2798 11.674 88.9972 12.4675C86.8559 13.2066 84.9428 15.0653 84.0515 17.2827C83.4863 18.6632 83.3232 19.5219 83.3232 21.1414C83.3232 22.4458 83.3559 22.8153 83.6059 23.7175C84.6493 27.6197 87.7472 30.2501 91.2906 30.261C93.0189 30.261 94.4428 29.6958 95.6059 28.5327L96.2906 27.8479V28.8697V29.8914H98.9537H101.617V17.174V4.45664H98.9537H96.2906V9.23925ZM94.1819 17.2175C95.5298 17.8371 96.3559 19.1197 96.4754 20.7827C96.6059 22.7392 95.8341 24.2719 94.3124 25.0762C93.7906 25.3479 93.6385 25.3806 92.595 25.3806C91.2472 25.3806 90.7363 25.1958 89.8993 24.4132C87.8667 22.511 88.345 18.511 90.7472 17.2827C91.7254 16.7827 93.1711 16.761 94.1819 17.2175Z" fill="#7C7C80"/>
<path d="M105.856 6.902V9.34766H108.519H111.183V6.902V4.45635H108.519H105.856V6.902Z" fill="#7C7C80"/>
<path d="M43.1064 5.17397C43.0629 5.21745 43.0303 10.7935 43.0303 17.5761V29.8914H45.8564H48.6824V25.9892V22.087L51.6498 22.0327C55.052 21.9783 55.3672 21.924 57.1607 21.0653C58.1607 20.587 58.4107 20.4022 59.2803 19.5218C60.8564 17.9457 61.5846 16.2827 61.6933 14.0653C61.8129 11.6631 61.1064 9.63049 59.5629 7.92397C58.5303 6.78266 57.2477 5.98919 55.5629 5.46745L54.6064 5.17397L48.8998 5.13049C45.7585 5.10875 43.1498 5.13049 43.1064 5.17397ZM54.0411 10.6088C54.6933 10.8261 55.552 11.5979 55.8672 12.2609C56.0629 12.6631 56.1172 12.9457 56.1172 13.587C56.1064 14.9566 55.5629 15.8479 54.3564 16.4348L53.639 16.7935L51.1607 16.8261L48.6824 16.8696V13.6522V10.4348H51.1064C53.0411 10.4348 53.639 10.4674 54.0411 10.6088Z" fill="#7C7C80"/>
<path d="M70.0411 12.2393C66.465 13.0437 63.8129 15.6415 62.965 19.1959C62.7476 20.1089 62.715 22.0763 62.9107 22.9893C63.6715 26.5219 66.3346 29.1959 69.9542 30.0763C71.0411 30.3372 73.052 30.3045 74.1715 30.0111C75.9215 29.5437 77.3998 28.6741 78.6389 27.3698C80.2911 25.6306 81.0737 23.6415 81.0737 21.1415C81.0737 18.4024 79.9107 15.9024 77.8346 14.1741C77.0302 13.5111 75.302 12.6089 74.2802 12.3372C73.3346 12.0763 71.0085 12.0219 70.0411 12.2393ZM73.5194 17.3806C74.3672 17.7828 74.9324 18.3589 75.3563 19.2393C75.6715 19.9024 75.6933 20.0219 75.6933 21.1959C75.6933 22.3806 75.6715 22.4785 75.3346 23.1632C74.9324 24.0002 74.3455 24.5763 73.4759 24.9893C72.9542 25.2285 72.7259 25.2719 71.8889 25.2719C71.052 25.2611 70.8237 25.2176 70.302 24.9676C69.552 24.6089 68.8672 23.8806 68.4868 23.0654C68.1498 22.3263 68.0302 20.8589 68.2368 19.935C68.4976 18.7828 69.4976 17.6415 70.6172 17.2285C70.8346 17.1524 71.4324 17.0763 71.9433 17.0763C72.7476 17.0654 72.9542 17.1089 73.5194 17.3806Z" fill="#7C7C80"/>
<path d="M144.629 12.1848C143.607 12.424 142.444 13.174 141.77 14.0218L141.411 14.4783L141.379 13.4566L141.346 12.4457L138.716 12.4131L136.074 12.3914V21.1414V29.8914H138.737H141.4V25.0218C141.4 19.9783 141.455 19.3261 141.889 18.4783C142.759 16.8044 144.835 16.337 146.031 17.5435C146.868 18.3696 146.879 18.4348 146.922 24.5327L146.955 29.8914H149.618H152.27V25.1305C152.27 19.9131 152.324 19.3587 152.9 18.3261C153.52 17.2392 154.716 16.674 155.857 16.9348C156.585 17.0979 156.9 17.3261 157.237 17.9022C157.781 18.8261 157.813 19.2174 157.813 24.7501V29.8914H160.487H163.15L163.118 23.8805C163.074 18.0435 163.074 17.8587 162.835 17.0218C162.161 14.6957 160.911 13.1957 159.042 12.5001C156.096 11.4022 152.976 12.4131 151.748 14.8696L151.422 15.5435L151.172 15.0218C150.802 14.2609 149.639 13.1414 148.781 12.7392C147.509 12.1305 145.813 11.9022 144.629 12.1848Z" fill="#7C7C80"/>
<path d="M105.933 12.4566C105.889 12.5001 105.856 16.4457 105.856 21.2174V29.8914H108.519H111.183L111.161 21.174L111.128 12.4457L108.563 12.4131C107.161 12.4022 105.976 12.424 105.933 12.4566Z" fill="#7C7C80"/>
<path d="M115.28 12.4673C115.161 12.576 115.193 22.6847 115.313 23.75C115.65 26.6521 116.856 28.6739 118.802 29.5978C119.9 30.1086 120.606 30.2608 121.889 30.25C123.715 30.2391 125.106 29.5869 126.03 28.3369L126.508 27.6956V28.7934V29.8913H129.117H131.726V21.1413V12.3913H129.128H126.53L126.476 17.3043C126.421 22.6413 126.4 22.913 125.802 24C125.269 24.9782 124.476 25.4239 123.247 25.4239C121.737 25.4347 120.943 24.6413 120.65 22.826C120.574 22.4021 120.53 20.1413 120.53 17.25V12.3913H117.943C116.519 12.3913 115.313 12.4239 115.28 12.4673Z" fill="#7C7C80"/>
</svg>
